<mxfile host="Electron" modified="2023-11-20T19:52:01.954Z" agent="Mozilla/5.0 (Windows NT 10.0; Win64; x64) AppleWebKit/537.36 (KHTML, like Gecko) draw.io/22.1.2 Chrome/114.0.5735.289 Electron/25.9.4 Safari/537.36" etag="t3H4geAyGi_ogH8UfN8C" version="22.1.2" type="device">
  <diagram name="Strona-1" id="jS5YgXVzHLS1uSuQBTap">
    <mxGraphModel dx="1098" dy="828" grid="1" gridSize="10" guides="1" tooltips="1" connect="1" arrows="1" fold="1" page="1" pageScale="1" pageWidth="827" pageHeight="1169" math="0" shadow="0">
      <root>
        <mxCell id="0" />
        <mxCell id="1" parent="0" />
        <mxCell id="YmmWHJjzUgMJ3fa5DCdy-5" style="edgeStyle=orthogonalEdgeStyle;rounded=0;orthogonalLoop=1;jettySize=auto;html=1;startArrow=classic;startFill=1;" edge="1" parent="1" source="YmmWHJjzUgMJ3fa5DCdy-1" target="YmmWHJjzUgMJ3fa5DCdy-3">
          <mxGeometry relative="1" as="geometry" />
        </mxCell>
        <mxCell id="YmmWHJjzUgMJ3fa5DCdy-8" style="edgeStyle=orthogonalEdgeStyle;rounded=0;orthogonalLoop=1;jettySize=auto;html=1;startArrow=classic;startFill=1;" edge="1" parent="1" source="YmmWHJjzUgMJ3fa5DCdy-1" target="YmmWHJjzUgMJ3fa5DCdy-4">
          <mxGeometry relative="1" as="geometry">
            <Array as="points">
              <mxPoint x="120" y="400" />
            </Array>
          </mxGeometry>
        </mxCell>
        <mxCell id="YmmWHJjzUgMJ3fa5DCdy-11" style="edgeStyle=orthogonalEdgeStyle;rounded=0;orthogonalLoop=1;jettySize=auto;html=1;" edge="1" parent="1" source="YmmWHJjzUgMJ3fa5DCdy-1" target="YmmWHJjzUgMJ3fa5DCdy-10">
          <mxGeometry relative="1" as="geometry">
            <Array as="points">
              <mxPoint x="90" y="530" />
            </Array>
          </mxGeometry>
        </mxCell>
        <mxCell id="YmmWHJjzUgMJ3fa5DCdy-1" value="Klient" style="whiteSpace=wrap;html=1;aspect=fixed;" vertex="1" parent="1">
          <mxGeometry x="50" y="250" width="80" height="80" as="geometry" />
        </mxCell>
        <mxCell id="YmmWHJjzUgMJ3fa5DCdy-7" style="edgeStyle=orthogonalEdgeStyle;rounded=0;orthogonalLoop=1;jettySize=auto;html=1;" edge="1" parent="1" source="YmmWHJjzUgMJ3fa5DCdy-3" target="YmmWHJjzUgMJ3fa5DCdy-6">
          <mxGeometry relative="1" as="geometry" />
        </mxCell>
        <mxCell id="YmmWHJjzUgMJ3fa5DCdy-3" value="3.1 &lt;br&gt;Pobranie danych o filmie" style="ellipse;whiteSpace=wrap;html=1;aspect=fixed;" vertex="1" parent="1">
          <mxGeometry x="334" y="250" width="80" height="80" as="geometry" />
        </mxCell>
        <mxCell id="YmmWHJjzUgMJ3fa5DCdy-9" style="edgeStyle=orthogonalEdgeStyle;rounded=0;orthogonalLoop=1;jettySize=auto;html=1;" edge="1" parent="1" source="YmmWHJjzUgMJ3fa5DCdy-4" target="YmmWHJjzUgMJ3fa5DCdy-6">
          <mxGeometry relative="1" as="geometry" />
        </mxCell>
        <mxCell id="YmmWHJjzUgMJ3fa5DCdy-4" value="3.2&lt;br style=&quot;border-color: var(--border-color);&quot;&gt;WyÅ›wietlenie filmu" style="ellipse;whiteSpace=wrap;html=1;aspect=fixed;" vertex="1" parent="1">
          <mxGeometry x="334" y="370" width="80" height="80" as="geometry" />
        </mxCell>
        <mxCell id="YmmWHJjzUgMJ3fa5DCdy-6" value="film" style="whiteSpace=wrap;html=1;" vertex="1" parent="1">
          <mxGeometry x="470" y="275" width="120" height="30" as="geometry" />
        </mxCell>
        <mxCell id="YmmWHJjzUgMJ3fa5DCdy-12" style="edgeStyle=orthogonalEdgeStyle;rounded=0;orthogonalLoop=1;jettySize=auto;html=1;" edge="1" parent="1" source="YmmWHJjzUgMJ3fa5DCdy-10" target="YmmWHJjzUgMJ3fa5DCdy-6">
          <mxGeometry relative="1" as="geometry">
            <Array as="points">
              <mxPoint x="560" y="530" />
            </Array>
          </mxGeometry>
        </mxCell>
        <mxCell id="YmmWHJjzUgMJ3fa5DCdy-10" value="3.3 Uruchomienie trailera" style="ellipse;whiteSpace=wrap;html=1;aspect=fixed;" vertex="1" parent="1">
          <mxGeometry x="334" y="490" width="80" height="80" as="geometry" />
        </mxCell>
      </root>
    </mxGraphModel>
  </diagram>
</mxfile>
